<svg xmlns="http://www.w3.org/2000/svg" xmlns:xlink="http://www.w3.org/1999/xlink" width="99.679" height="16.435" viewBox="0 0 99.679 16.435">
  <defs>
    <clipPath id="clip-path">
      <rect id="Rectangle_27" data-name="Rectangle 27" width="99.256" height="9.534" fill="#ff314d"/>
    </clipPath>
  </defs>
  <g id="Group_86" data-name="Group 86" transform="matrix(0.998, -0.07, 0.07, 0.998, 0, 6.924)">
    <g id="Group_69" data-name="Group 69" transform="translate(0 0)" clip-path="url(#clip-path)">
      <path id="Path_4541" data-name="Path 4541" d="M166.9,1.585c.148.032.074-.386.093-.462-.241.1-.081.57-.093.462" transform="translate(-67.738 -0.562)" fill="#ff314d"/>
      <path id="Path_4542" data-name="Path 4542" d="M162.729,3.951l.034-.173-.335.432Z" transform="translate(-65.94 -1.889)" fill="#ff314d"/>
      <path id="Path_4543" data-name="Path 4543" d="M159.124,3.946c.251.706.814-.145,1.23.094l.075.16.153-.581c-.485.109-1.1.513-1.458.327" transform="translate(-64.599 -1.81)" fill="#ff314d"/>
      <path id="Path_4544" data-name="Path 4544" d="M156.942,1.275c.089.275-.249.249.286.077a.568.568,0,0,1-.055-.069.845.845,0,0,1-.231-.008" transform="translate(-63.703 -0.638)" fill="#ff314d"/>
      <path id="Path_4545" data-name="Path 4545" d="M157.319,1.184c.238-.029-.168-.228,0,0" transform="translate(-63.849 -0.538)" fill="#ff314d"/>
      <path id="Path_4546" data-name="Path 4546" d="M155.392,1.12l.3-.259c-.074-.162-.355-.189-.258-.312-.315.148-.241.308-.043.571" transform="translate(-63.015 -0.275)" fill="#ff314d"/>
      <path id="Path_4547" data-name="Path 4547" d="M155.053,2.594l.157-.111c-.032-.068-.077-.09-.157.111" transform="translate(-62.946 -1.217)" fill="#ff314d"/>
      <path id="Path_4548" data-name="Path 4548" d="M155.651,2.063l-.334.234c.052.114.068.345.154-.086-.017.212.04.007.179-.149" transform="translate(-63.053 -1.032)" fill="#ff314d"/>
      <path id="Path_4549" data-name="Path 4549" d="M156.217,2.247c.184.149.416.238.114.5.6-.12.482-.619-.114-.5" transform="translate(-63.419 -1.114)" fill="#ff314d"/>
      <path id="Path_4550" data-name="Path 4550" d="M158.992,5.671l.246.2.192-.247c-.1.123-.464-.177-.438.047" transform="translate(-64.545 -2.793)" fill="#ff314d"/>
      <path id="Path_4551" data-name="Path 4551" d="M152.183,1.094a3.821,3.821,0,0,0,.16.594l.223-.183c-.124-.1-.355-.187-.383-.412" transform="translate(-61.781 -0.547)" fill="#ff314d"/>
      <path id="Path_4552" data-name="Path 4552" d="M152.225,2.281l-.334.273c.312.02.362-.107.334-.273" transform="translate(-61.662 -1.141)" fill="#ff314d"/>
      <path id="Path_4553" data-name="Path 4553" d="M154.952,3.772l.542-.568-.651.58Z" transform="translate(-62.861 -1.602)" fill="#ff314d"/>
      <path id="Path_4554" data-name="Path 4554" d="M149.853.794l.179-.359-.323.544Z" transform="translate(-60.776 -0.218)" fill="#ff314d"/>
      <path id="Path_4555" data-name="Path 4555" d="M148.013.67c.131-.3-.225-.485-.08-.67-.236.061-.427.318-.6.549.189-.133.4-.108.68.121" transform="translate(-59.812 0)" fill="#ff314d"/>
      <path id="Path_4556" data-name="Path 4556" d="M146.843,1.437a1.952,1.952,0,0,0,.292-.339.991.991,0,0,0-.292.339" transform="translate(-59.613 -0.549)" fill="#ff314d"/>
      <path id="Path_4557" data-name="Path 4557" d="M150.688,2.3a.666.666,0,0,0-.3-.423l.158.422h.137" transform="translate(-61.054 -0.938)" fill="#ff314d"/>
      <path id="Path_4558" data-name="Path 4558" d="M150.463,2.719l-.005-.014c-.149,0-.252-.01-.3-.013.038,0,.129.01.3.027" transform="translate(-60.96 -1.346)" fill="#ff314d"/>
      <path id="Path_4559" data-name="Path 4559" d="M150.924,2.721h-.034c.015.042.024.055.034,0" transform="translate(-61.256 -1.36)" fill="#ff314d"/>
      <path id="Path_4560" data-name="Path 4560" d="M153.214,3.634c-.192.246-.6.518-.173.867.131-.3-.115-.5.173-.867" transform="translate(-62.052 -1.817)" fill="#ff314d"/>
      <path id="Path_4561" data-name="Path 4561" d="M151.28,3.465l.374.084c-.013-.112-.088-.274.007-.4Z" transform="translate(-61.414 -1.576)" fill="#ff314d"/>
      <path id="Path_4562" data-name="Path 4562" d="M150.988,3.888l.173-.142-.138-.031Z" transform="translate(-61.296 -1.858)" fill="#ff314d"/>
      <path id="Path_4563" data-name="Path 4563" d="M147.586,2.526a.725.725,0,0,1-.518.251,1.734,1.734,0,0,0,.642.105c.023-.135.1-.379-.124-.356" transform="translate(-59.704 -1.263)" fill="#ff314d"/>
      <path id="Path_4564" data-name="Path 4564" d="M149.246,2.709c-.011.01-.024.016-.034.026.023.036.042.047.034-.026" transform="translate(-60.575 -1.355)" fill="#ff314d"/>
      <path id="Path_4565" data-name="Path 4565" d="M143.808,3.165c.012.023.023.052.035.077,0-.025,0-.049,0-.074Z" transform="translate(-58.381 -1.583)" fill="#ff314d"/>
      <path id="Path_4566" data-name="Path 4566" d="M148.185,3.23c.163.077.252-.031.336-.167a1.183,1.183,0,0,1-.375.089c-.01.061-.011.1.039.078" transform="translate(-60.14 -1.532)" fill="#ff314d"/>
      <path id="Path_4567" data-name="Path 4567" d="M145.951,2.181a1.775,1.775,0,0,0,.286.225c-.087-.132-.263-.337-.286-.225" transform="translate(-59.251 -1.075)" fill="#ff314d"/>
      <path id="Path_4568" data-name="Path 4568" d="M149.1,2.458a.161.161,0,0,1,.023-.02c-.056-.09-.048-.045-.023.02" transform="translate(-60.521 -1.194)" fill="#ff314d"/>
      <path id="Path_4569" data-name="Path 4569" d="M148.978,2.528a1.089,1.089,0,0,0-.2.268.845.845,0,0,0,.256-.152.584.584,0,0,1-.059-.116" transform="translate(-60.4 -1.264)" fill="#ff314d"/>
      <path id="Path_4570" data-name="Path 4570" d="M142.77,6c.008-.4.406-.778.787-.367.339-.31.04-1.6-.306-2.319,0,.173.006.333-.346.58.138.212.834.476.545.845-.472.222-.4-.126-.648-.326.225.486-.577.74-.434,1.461l.41-.271c.014.113-.131.3-.008.4" transform="translate(-57.79 -1.659)" fill="#ff314d"/>
      <path id="Path_4571" data-name="Path 4571" d="M144.565,2.776l.147-.055c-.175-.063-.3-.217-.546-.518a.667.667,0,0,0-.294.484l.741.028Z" transform="translate(-58.407 -1.102)" fill="#ff314d"/>
      <path id="Path_4572" data-name="Path 4572" d="M145.959,2.926c-.1.435-.446.631-.2,1.089.438-.046.289-.371.543-.567-.7.133.191-.248-.334-.473a1.139,1.139,0,0,1,.378-.128,2,2,0,0,1-.377-.183.26.26,0,0,1,.018.026h0a.024.024,0,0,0,0,.007c.033.053.045.085.009.055,0,.006-.011.008-.014.01a.846.846,0,0,1-.024.164c-.21-.081-.038-.111.024-.164,0-.021.005-.042.005-.065l0-.005-.7.262a1.36,1.36,0,0,0,.673-.027" transform="translate(-58.981 -1.332)" fill="#ff314d"/>
      <path id="Path_4573" data-name="Path 4573" d="M152.569,7.147a.2.2,0,0,1-.028-.1c-.043.055-.059.091.028.1" transform="translate(-61.912 -3.524)" fill="#ff314d"/>
      <path id="Path_4574" data-name="Path 4574" d="M151.82,5.716c.049-.062.083-.236.253-.2.153.124.01.207.025.348.1-.118.339-.322.01-.519l-.047.06c-.294-.138-.69-.661-.643-.722a3.969,3.969,0,0,0,.4,1.031" transform="translate(-61.469 -2.343)" fill="#ff314d"/>
      <path id="Path_4575" data-name="Path 4575" d="M148.836,5.188l-.581.233.32.362-.027-.224c.342.076.254-.2.288-.371" transform="translate(-60.186 -2.594)" fill="#ff314d"/>
      <path id="Path_4576" data-name="Path 4576" d="M143.5,2.284l.055-.458-.309.655Z" transform="translate(-58.154 -0.913)" fill="#ff314d"/>
      <path id="Path_4577" data-name="Path 4577" d="M142.26,2.51l.008-.4-.191.246Z" transform="translate(-57.678 -1.057)" fill="#ff314d"/>
      <path id="Path_4578" data-name="Path 4578" d="M69.608,15.88,69.439,16a.5.5,0,0,0,.169-.119" transform="translate(-28.19 -7.94)" fill="#ff314d"/>
      <path id="Path_4579" data-name="Path 4579" d="M71.824,15.646l.021-.2c-.053.11-.072.19-.021.2" transform="translate(-29.146 -7.725)" fill="#ff314d"/>
      <path id="Path_4580" data-name="Path 4580" d="M110.213,3.73c-.272-.36-.585-.923-.532-.479l.1.43a.385.385,0,0,1,.431.049" transform="translate(-44.524 -1.544)" fill="#ff314d"/>
      <path id="Path_4581" data-name="Path 4581" d="M89.019,10.2l.081.129c.054-.151.105-.29.15-.421-.069.092-.148.19-.23.292" transform="translate(-36.139 -4.953)" fill="#ff314d"/>
      <path id="Path_4582" data-name="Path 4582" d="M88.635,13.824l-.349-.268a1.155,1.155,0,0,0,.349.268" transform="translate(-35.841 -6.778)" fill="#ff314d"/>
      <path id="Path_4583" data-name="Path 4583" d="M58.06,17.3l-.181.449c.318-.014.166-.232.181-.449" transform="translate(-23.497 -8.65)" fill="#ff314d"/>
      <path id="Path_4584" data-name="Path 4584" d="M128.751,3.559a1.172,1.172,0,0,0-.559-.242c.276.239.508.605.559.242" transform="translate(-52.041 -1.659)" fill="#ff314d"/>
      <path id="Path_4585" data-name="Path 4585" d="M70.066,6.645a.307.307,0,0,0-.135.269c.106-.079.163-.164.135-.269" transform="translate(-28.389 -3.322)" fill="#ff314d"/>
      <path id="Path_4586" data-name="Path 4586" d="M127.13,3.17a1.373,1.373,0,0,0,.12.1.89.89,0,0,1,.511-.122c-.2-.179-.432-.285-.631.025" transform="translate(-51.61 -1.487)" fill="#ff314d"/>
      <path id="Path_4587" data-name="Path 4587" d="M16.117,18.349a.573.573,0,0,1-.059-.049c0,.059.023.061.059.049" transform="translate(-6.519 -9.15)" fill="#ff314d"/>
      <path id="Path_4588" data-name="Path 4588" d="M3.545,10.121a1.181,1.181,0,0,1,.3-.044c-.055-.028-.145-.022-.3.044" transform="translate(-1.439 -5.031)" fill="#ff314d"/>
      <path id="Path_4589" data-name="Path 4589" d="M137.157,2.723c.162-.034.023-.049,0,0" transform="translate(-55.681 -1.346)" fill="#ff314d"/>
      <path id="Path_4590" data-name="Path 4590" d="M138.6,6.124a.363.363,0,0,0-.054.213.462.462,0,0,1,.054-.213" transform="translate(-56.246 -3.062)" fill="#ff314d"/>
      <path id="Path_4591" data-name="Path 4591" d="M124.617,8.878H124.6c.053.083.044.068.014,0" transform="translate(-50.584 -4.438)" fill="#ff314d"/>
      <path id="Path_4592" data-name="Path 4592" d="M137.44,3.009a.757.757,0,0,0-.215-.121.806.806,0,0,0,.215.121" transform="translate(-55.708 -1.444)" fill="#ff314d"/>
      <path id="Path_4593" data-name="Path 4593" d="M137.514,2.68c.057.018.1.027.145.037.017-.073,0-.118-.145-.037" transform="translate(-55.826 -1.318)" fill="#ff314d"/>
      <path id="Path_4594" data-name="Path 4594" d="M136.777,2.786a.623.623,0,0,1,.266.036c-.033-.029-.049-.053-.04-.067-.048.009-.115.02-.226.032" transform="translate(-55.527 -1.377)" fill="#ff314d"/>
      <path id="Path_4595" data-name="Path 4595" d="M38.472,15.066a.392.392,0,0,1-.037-.04c-.156.186-.085.155.037.04" transform="translate(-15.567 -7.513)" fill="#ff314d"/>
      <path id="Path_4596" data-name="Path 4596" d="M103.815,13.648c.007,0,.011-.016.018-.022l-.025-.014Z" transform="translate(-42.142 -6.806)" fill="#ff314d"/>
      <path id="Path_4597" data-name="Path 4597" d="M102.862,12.749c.221-.549.367-.488.562-.38l-.258-1.243Z" transform="translate(-41.758 -5.563)" fill="#ff314d"/>
      <path id="Path_4598" data-name="Path 4598" d="M38.728,9.267l.431.375c-.464.659-.835.451-.42.985-.011-1.36,1.593-.2,1.58-1.555l.286.276c-.078-.01-.087.07-.165.059.561.631.342-1,1.031-.827.242.1.418.287.264.454l.511-.355a.119.119,0,0,1-.025.238l.8-.138,0,.04a4.385,4.385,0,0,1,.468-.7c.214.187-.1.148-.034.315l.429-.345a.459.459,0,0,1-.463.661c.486,1.34.352-.355,1.291.4l-.412.188c.311.76.625.469,1.126.932-.126-.247-1.015-1.175-.549-1.531.142.1.324.14.571-.143.027.483.276.355.594.316l.011.64c.336-.2.292-.521.48-.817.387.049.492.542.6.955.621.079-.466-.778.257-.925.525.226.87-.049,1.463-.454.369.208-.043.394.1.572l.291-.522c.078.009.061.167.053.247.257-.207-.011-.64.4-.828.077-.709.917,1,1.4.179.138.177-.042.394.01.64a3.922,3.922,0,0,0,1.143-1.131l.522.4c-.392-.467.048-1.052.435-1.533a5.914,5.914,0,0,0-.343-.52l.638-.367c.084.1.03.324-.064.595a1.841,1.841,0,0,0,.112-.158c.247.228.144.6-.005.964-.086-.123-.173-.255-.257-.386a2.682,2.682,0,0,0-.219,1.2.426.426,0,0,1,.206-.181.451.451,0,0,0-.036.265c.026.067.087-.078.186-.245l.186.707.021-.284.881.415c.577-.74,1.056-1.815,2.016-2.144-.215.531-.008.855.011,1.475-.3-.646-.74.306-1.252.191.267.059.225.357.163.462l.87-.629c.006.507.211.373.457.574-.229-.995.637-.691.987-1.012.04.336-.03.682-.481.617.532.736.577-1.2,1.094-.576-.109.012-.17-.038-.2.135.239-.308.875-.094.744.2l-.109.011c.731.092,2.206-.073,2.27-.927a10.993,10.993,0,0,1-.077,1.2l1.146-2.907c-.076.734.45,2.457-.13,2.891a.582.582,0,0,0,.748-.06c-.123-.1-.348-1.045-.19-1.118.483.8.328.424.908,1.1-.184-.15-.047-1.3.233-1.275A8.461,8.461,0,0,1,63.7,7.809l.636-1.149c-.163.209.018.953.189,1.265-.083-.218.6,0,.781-.12l-.308-.25c.792.141.693-1.609,1.473-1.578-.082.236-.159,1.437.244,1.564.151-.582.66-2.8,1.325-3.265l.149.324.508-.394a21.128,21.128,0,0,1-1.58,3.461c.307.25.1.385.539.339.171.3-.215.477-.343.5l1.032.162c-.08-.671.747-.7.68-1.261l-1.075.737c-.08-.669.544-1.93,1.274-1.838.2.261-.076,1.2-.049,1.425.082-.235.665-.467.74-.306l-.289.371c.416.238.612-.915,1.13-.291.169.037.544.847.552.448a10.386,10.386,0,0,1-.335-3.708A6.072,6.072,0,0,1,72.1,5.318c.306.591-.34,1.447-.079,1.955a.981.981,0,0,1,.2-.491c.184.151-.043.571.334.474.029-.683.779.03.151-.582.364-.208.4.126.841.08a2.1,2.1,0,0,1,.68-1.72,1.172,1.172,0,0,0,.129.5c.768.034,1.2.328,1.909.308.074.163.429.35.3.648.1-.124.179-.359.4-.383.456.574-.486.11-.125.806.007-.4.541-.567.842-.826-.128-.608-.73-.091-1.031.168a2.464,2.464,0,0,1,1.182-2.163c.582-.231.285.536.381.412,1.122.107.873-1.507,1.829-.932.394.524.071,1.068.173,1.453-.472.221-.759-.314-1.085-.281l.416.24c-.145.184-.46.332-.644.182.333.472,1.886.025,2.768.439.143-.186.4-.382.261-.593l-.268.085c-.272-.425.481-.618.127-.808.349-.318.733-.812,1.259-.585l.128.609c-.02-.179-.355-.353-.489-.161.2-.28.83.8,1.023-.01l-.381-.412c.35-.321.769-.988,1.234-.811-.238-.6-.1.073-.461-.623.326.871-1.166.005-.668.915-.374-.81-.592-.328-1.062-1.013.024.2.173.381-.213.3a.9.9,0,0,1-.075.181c-.012-.005-.016-.009-.027-.014.008.007.014.016.023.023-.015.031-.016.037.008.008a.707.707,0,0,1,.21.3c-.166.471-.774.479-.967.726-.231-.088.083-.236-.052-.447l-.288.371c-.053-.448-.64-.724-.121-1.006l-.481,0a.75.75,0,0,0-.92-.13c-.232-.089-.547.518-.368.159l-.74.306-.012-.112c-.747-.03-1.492.8-2.384.02a1.15,1.15,0,0,1-.921.159l-.1-.386c-.315.148-.985-.353-1.1.057-.4-1.032-1.572-.171-2.146-.336l0,.508a2.719,2.719,0,0,0-1.228.364l.052.447c-.4.383-1.086-.28-1.743-.21.036-.173.206-.134.329-.035-.839-.983-1.622.8-2.374.086a.276.276,0,0,1-.432.011.063.063,0,0,0,.043-.025.258.258,0,0,0-.073,0c-.083-.074-.168-.161-.259-.23a.959.959,0,0,0,.22.233,1.409,1.409,0,0,0-.54.2l-.112-.478c-.016.007-.029.007-.046.016-.209-.171-.149.234-.024.592a1.1,1.1,0,0,0-.255.3c-.2-.771-.521.281-.785-.539-.117.409-1.01.341-1.075,1.195-.012-.11-.075-.161.034-.172-.232-.089-.465-.177-.656.07l-.128-.609-.454.841c-.321-.362-.457-.574-.182-1.056-.686.751-.573.295-1.15,1.034l.01-.4c-.219.023-.543.566-.693.244-.53-.734-2.437-.015-3.735-.668.3,1.156-.613-.5-.617.4-.088-.273-.271-.422-.08-.669-.63.294-.99-.4-1.4.376-.088-.274.117-.409.043-.57-.049.062-.192.247-.267.085s.082-.235.178-.358c-.655.07-.678.922-.685,1.72-.353-.365-.516-.306-.73.226-.13-.256-.337-.522.067-.63-.232-.03-1.424-.331-1.415.309-.08-.16-.324-.036-.38.04a3.909,3.909,0,0,0-1.07,0l.146.1c-.16.778-.412.187-.816.3l.008-.08c-.965-.522-.39.281-1.347-.32l.075.477c-.033,1.034-.849-.578-1.366-.164l.208.267c-.275.364-.891-1.372-1.192-1.49-.069-.088.094-.148.18-.217-.8-.58-.068.632-.634.8-.124-.335.092-.866-.3-.915-.206-.268-1.064,1.14-1.624.51.13.257.258.513,0,.719-.4.108-1.155-.947-1.482-.111a.36.36,0,0,1-.084-.2c-.3.224-1,.39-1.162.843-.374-1.645-1.9.876-1.972-.651l-.956.117.017-.157c-.62-.079-.817.3-1.015.67-.147-.1-.051-.245-.043-.326-.913-.275-1-.207-1.712.581l-.1-.492c-.189.3-1.337-.73-2.187-.12a.389.389,0,0,1,.086-.226c-.96.617-2.441-1.288-2.711.53l-.63.468c.852.11-.086.787.277,1.074-.327.118-.887-.513-.484-.62l.069.088c.1-.946-1.067-.3-1.078-.936-1.661.107-3.309-.355-4.869-.338l.217.725L23.06,5.89c-.151-.165-.221-.565.169-.549-.226-.407-.633.371-.636.53-.774-.269.253-.863.019-.872l-.313.066.075.083c-.241.308-.247.625-.715.606-.3-.136-.174-.445-.292-.469,0-.052-.043-.075-.179-.015L20.5,5.233l.3.568c-.289.3-.645-.007-.3.635-.516-.991-2.572-.269-2.873-.571a1.459,1.459,0,0,1-1.345.412c.135.116.246.762-.206.7.1-1.345-.851-.551-1.262-1.5.356.627-1.266.2-.712,1.093-.38-.095-.049-.5-.349-.805-.864.551-1.979-.266-3.071-.05-.008.176.19.438-.033.708l-.626-.858c-.213.095-.148,1.022-.576.427.064.146.159.366.016.427-2.2-.778-4.369.862-6.641-.668.314.33.118.371-.108.392.151.077.019.435.06.672l-.95-.628C1.7,6.849.852,6.263.788,6.9l.285-.124c-.348.76.626,1.638.618,2.6.388-.864,1.2,1.215,1.851-.025.166.19-.118.313-.023.532.159-.417.371-.511.783-.341l-.04.1c1.125-.141,1.631.246,2.914.469l-.118-.47c.276.054.341.2.475.314.276-.729-.768-.013-.523-.814.411.95,1.925-.056,2.225,1.03.42-.01-.151-.544.269-.553l.127.292.087-.386c.278.053.436.419.459.669-.068-.027-.186.078-.257.1.375.336,1-.156,1.129-.047l-.413-.168c1.131-.319,2.55.019,3.625-.623l-.1-.221c.823-.444.689.221,1.607,0l-.031.054a.782.782,0,0,1,.672-.334c-.221.27.467.492.175.793.893-.477.435-.365,1-1.217l.159.365c.189-.343.2-.52.656-.633-.364.332.325.554-.079.99,1.013.775,1.4-.871,1.909.3.393-1.042-.871-.539-.632-.768-.227-.328.329-.78.639-.688.312.012.6,1.292,1.376,1.245-.078,0-.08.076-.157.074.306.251.555-.375.936.037.169-.628.468.019.485-.775l-.707.209c.4-.222.729-1.161,1.422-.737a1.381,1.381,0,0,1-.363.5c.207.226.369-.169.584.064-.017.794-.862.2-1.266.823.228.327.794-.6.62.262.258-1.1.776.11,1.263-.742l-.011.476c.08-.078.242-.308.4-.3l-.247.625c.4-.54.849.429,1.245.128-.86.046-.222-.564-.6-.9,1.028-.673.674,1.218,1.85.948-.157.073-.618-.263-.378-.492a1.446,1.446,0,0,1,.69.5c.782-.127-.146-.484.175-.787.3.568.374-.249.71-.447l.027.482c.912.277.186-1.013,1.013-.669l-.307.681.412-.189-.059.552c.437-.424.585-.323,1.041-.186-.122-.336.014-.877.41-.906.286.277-.128.464.431.374-.112.306-.232.69-.5.255-.017.158-.11.307-.128.463.308.319.737.049.94.037a.364.364,0,0,1-.226-.1l.782-.7c.138.176.043.325-.05.472.163-.059.266-.284.507-.335-.043.394-.007.8-.342,1l.756-.463c.061.169.423.454.33.6.443.215,1.018-.8,1.606-.516a.366.366,0,0,1,.2-.213c.542.069,1.043.532,1.652-.028l.4.689c.49-.178-.535-.867.282-1.162.576-.246.25.591.466.779.274-.365.746-1.1,1.315-.552-.172.139-.318.04-.482.1m6.135-.535c-.114.105-.336.426-.437.145.108-.558.226-.3.437-.145m9.291-1.5c-.081.163-.222.089-.386-.089a.372.372,0,0,1,.386.089m25.874-4.3a.122.122,0,0,0-.011.024c-.276-.179-.178-.108.011-.024m.563.189a.19.19,0,0,0,.018-.2c-.033.124-.156.137-.3.108.046.125.121.21.28.1M21.315,5.465l.114.123c-.236.148-.174.019-.114-.123" transform="translate(-0.32 -1.093)" fill="#ff314d"/>
      <path id="Path_4599" data-name="Path 4599" d="M88.834,13.413a.9.9,0,0,1-.065-.26.2.2,0,0,0,.065.26" transform="translate(-36.027 -6.576)" fill="#ff314d"/>
      <path id="Path_4600" data-name="Path 4600" d="M58.216,17.131c-.007,0-.012,0-.019,0a.345.345,0,0,0-.014.088Z" transform="translate(-23.62 -8.563)" fill="#ff314d"/>
      <path id="Path_4601" data-name="Path 4601" d="M120.927,12.6a.554.554,0,0,1-.232-.241c0,.119.056.216.232.241" transform="translate(-48.998 -6.18)" fill="#ff314d"/>
      <path id="Path_4602" data-name="Path 4602" d="M139.744,2.195l-.348.139c.17-.031.236.073.327.146-.014-.112-.09-.273.021-.285" transform="translate(-56.59 -1.098)" fill="#ff314d"/>
      <path id="Path_4603" data-name="Path 4603" d="M145.326,7.642c.049-.061.109-.01.157-.072l-.026-.224c-.219.022-.364.209-.131.3" transform="translate(-58.949 -3.673)" fill="#ff314d"/>
      <path id="Path_4604" data-name="Path 4604" d="M140.671,5.176c.049.4.264.259.507.175a.1.1,0,0,1-.044,0c.044-.57-.21-.373-.463-.176" transform="translate(-57.107 -2.488)" fill="#ff314d"/>
      <path id="Path_4605" data-name="Path 4605" d="M141.621,5.562a.458.458,0,0,1,.229-.018c.017-.229-.1-.044-.229.018" transform="translate(-57.493 -2.716)" fill="#ff314d"/>
      <path id="Path_4606" data-name="Path 4606" d="M136.124,2.965c.123.1.047-.521.122-.359.105-.521-.751.653-.122.359" transform="translate(-55.167 -1.236)" fill="#ff314d"/>
      <path id="Path_4607" data-name="Path 4607" d="M140.965,7.534l-.115-.5-.118.409Z" transform="translate(-57.132 -3.518)" fill="#ff314d"/>
      <path id="Path_4608" data-name="Path 4608" d="M137.8,7.355l.4.124a.177.177,0,0,1,.1-.175c-.245-.007-.517-.1-.5.051" transform="translate(-55.941 -3.635)" fill="#ff314d"/>
      <path id="Path_4609" data-name="Path 4609" d="M138.642,7.244a.365.365,0,0,0,.314-.095.783.783,0,0,0-.314.095" transform="translate(-56.284 -3.574)" fill="#ff314d"/>
      <path id="Path_4610" data-name="Path 4610" d="M139.951,8.245l-.122-.1-.282-.026Z" transform="translate(-56.651 -4.059)" fill="#ff314d"/>
      <path id="Path_4611" data-name="Path 4611" d="M130.335,7.556l-.425.159c-.035.174.088.274.245.2.1-.124.254-.2.179-.359" transform="translate(-52.736 -3.778)" fill="#ff314d"/>
      <path id="Path_4612" data-name="Path 4612" d="M132.8,9.829c-.122-.1-.136-.211-.21-.374l.019.621Z" transform="translate(-53.828 -4.727)" fill="#ff314d"/>
      <path id="Path_4613" data-name="Path 4613" d="M130.64,10.584c-.034.174-.6.517-.056.458.035-.173.46-.331.056-.458" transform="translate(-52.917 -5.292)" fill="#ff314d"/>
      <path id="Path_4614" data-name="Path 4614" d="M119.814,8.459l.109-.012-.068-1.017Z" transform="translate(-48.64 -3.715)" fill="#ff314d"/>
      <path id="Path_4615" data-name="Path 4615" d="M110.318,13.984c.525.225.089-.633.567-.345.108-.245-.391-.235-.278-.447-.3.265-.466.128-.289.792" transform="translate(-44.756 -6.596)" fill="#ff314d"/>
      <path id="Path_4616" data-name="Path 4616" d="M110.854,13.032a1.121,1.121,0,0,0,.15-.161.526.526,0,0,0-.15.161" transform="translate(-45.003 -6.435)" fill="#ff314d"/>
      <path id="Path_4617" data-name="Path 4617" d="M1.235,8.976l-.34-.2.23.334Z" transform="translate(-0.363 -4.388)" fill="#ff314d"/>
      <path id="Path_4618" data-name="Path 4618" d="M.279,10.086.168,9.44,0,10.034c.073-.031.214-.093.279.052" transform="translate(0 -4.72)" fill="#ff314d"/>
      <path id="Path_4619" data-name="Path 4619" d="M76.447,17.471l.017-.157c-.06-.167-.137-.177-.293-.2Z" transform="translate(-30.923 -8.558)" fill="#ff314d"/>
      <path id="Path_4620" data-name="Path 4620" d="M69.014,16.609l.077.011-.173-.582Z" transform="translate(-27.978 -8.019)" fill="#ff314d"/>
      <path id="Path_4621" data-name="Path 4621" d="M62.826,18.624c.154.019.327-.119.482-.1-.328.118-.561-.631-.482.1" transform="translate(-25.499 -9.15)" fill="#ff314d"/>
    </g>
  </g>
</svg>
