<svg id="Group_65" data-name="Group 65" xmlns="http://www.w3.org/2000/svg" xmlns:xlink="http://www.w3.org/1999/xlink" width="1001.805" height="440.574" viewBox="0 0 1001.805 440.574">
  <defs>
    <clipPath id="clip-path">
      <rect id="Rectangle_26" data-name="Rectangle 26" width="1001.805" height="440.574" fill="#fff"/>
    </clipPath>
  </defs>
  <g id="Group_64" data-name="Group 64" clip-path="url(#clip-path)">
    <path id="Path_4461" data-name="Path 4461" d="M397.459,271.734c.013-.014.191-.207.208-.224h0l-.207.224" fill="#fff"/>
    <path id="Path_4462" data-name="Path 4462" d="M413.048,280.347s-.142.193-.18.243h0Z" fill="#fff"/>
    <path id="Path_4463" data-name="Path 4463" d="M397.459,271.734l-.006.006.006-.006" fill="#fff"/>
    <path id="Path_4464" data-name="Path 4464" d="M206.874,260.02c.311-.319.04-1.2.04-2.125l-8.122-1.82c2.758-7.791,9.142-14.63,1.371-22.5-.858-.868-.356-3.224-.248-4.874.37-5.609.485-11.268,1.368-16.8,1.28-8.014-1.316-16.686,4.21-24.729l6.789,5.476,12.948-3.875c2.831-6.507-4.842-4.555-6.642-8.246l10.054-1.1v-8.926l-8.9-2.985q.151-.873.3-1.746l17.794-1.329-.081-1.98-14.466-1.208,13.6-3.647a21.279,21.279,0,0,0-8.367-1.676c-13.2-.552-26.51,1.7-39.613-1.779-1.675-.445-3.775.615-5.657,1.066-2.495.6-4.94,1.673-7.458,1.861-9.874.736-19.767,1.2-29.654,1.772.009.239.017.479.025.718H157.75c-5.3,2.357-11.372,5.3-15.713,3.66-7.2-2.722-10.938,1.575-16.605,3.749.718,13.333,1.413,26.221,2.124,39.42l3.048-1.561c3.222,8.1,3.222,8.1,8.555,10.268-2.393-11.329,9.616-15.569,10.744-24.4h17.466a38.993,38.993,0,0,1,.436,4.621c-.851,21.914-1.677,43.83-2.742,65.734-.092,1.9-1.691,3.794-2.811,5.549-6.751,10.578-17.822,16.286-27.263,23.8-2.877,2.288-6.774,3.292-10.464,5l-43.4-117.51c2.9-3.075,5-5.662,7.46-7.84,11.913-10.545,24.386-20.5,35.787-31.569a387.974,387.974,0,0,1,51-41.962,193.613,193.613,0,0,0,15.493-12.393c3.233-2.742,5.852-6.291,9.3-8.687C211.323,67.681,222.919,60.554,234,52.694,253.433,38.9,272.6,24.742,291.9,10.763c2.887-2.09,6.979-3.5,4.858-8.331C295.615-.18,289.9-.786,285.917,1.092a17.3,17.3,0,0,0-2.49,1.639c-8.389,5.93-16.721,11.94-25.172,17.778-7.338,5.068-15,9.677-22.174,14.966-10.369,7.649-20.358,15.813-30.659,23.558-2.135,1.6-4.925,2.341-7.413,3.478l-1.137-1.8c1.665-1.5,3.269-3.08,5.006-4.495,5.338-4.351,11.145-8.221,15.978-13.068,4.859-4.874,8.767-10.7,13.678-16.836l-6.058,1.449c1.106-2.416,2.011-4.393,3.189-6.963-5.251,1.371-6.884,7.935-12.853,5.817,1.77-6.784,14.377-6,10.915-17.226-4.785,1.757-9.005,4.649-13.106,4.49-5.721-.221-9.38,2.429-13.28,5.453Q136.928,68.515,73.526,117.706C56.454,130.937,39.2,143.937,22.273,157.348a106.69,106.69,0,0,0-15.61,15.034C3.71,175.918,2.366,180.8,0,185.7l2.749,6.75c5.2-1.992,9.856-3.478,14.253-5.519,9.459-4.388,9.4-4.505,12.882,5.668.428,1.25.918,2.48,1.292,3.745,3.809,12.912,6.567,26.248,11.6,38.663,12.824,31.644,26.914,62.774,39.9,94.356,2.919,7.1,10.155,13.627,5.5,22.724,4.712,8.273-2.549,10.775-7.073,14.516a71.388,71.388,0,0,1-9.124,6.865c-6.6,3.867-7.814,11.8-12.95,16.571-4.35,4.037-5.658,8.37-4.118,14.96,3.568,0,7.695,1.188,10.427-.258,5.032-2.665,9.519-6.582,13.739-10.507,9.444-8.781,18.585-17.889,27.2-26.239l10.241,1.9c.76-10.8,1.448-11.689,11.031-17.128a24.751,24.751,0,0,0,5.321-4.311c6.945-7.112,13.789-14.321,22.317-23.214,0,12.042-.051,21.884.031,31.725a42.057,42.057,0,0,0,.7,8.895c2.29,10.109,6.16,19.914,5.318,30.587a32.93,32.93,0,0,0,.61,5.9h9.032c1.928-9.759,5.911-18.611,4.373-28.328-.144-.91,0-2.4.583-2.809,5.188-3.631,2.886-8.991,3.284-13.676.364-4.291-1.19-9.8.938-12.653,3.7-4.97,2.986-9.913,3.047-15.019q.229-18.981,0-37.965c-.069-5.216.837-9.45,5.142-13.221,6.6-5.776,12.491-12.355,18.622-18.653M150.308,98.759l.03-.03c-1.257-2.216-1.41-3.957,1.95-4.681a11.572,11.572,0,0,0,1.35-.387c1.11-.387,2.192-.906,3.284-1.374l.464-.455.707-.488,5.384-6.935,1.849,1.929-7.226,5-.519.67c-.222.088-.441.187-.661.281L153.847,95.3l-3.5,3.423c.05.088.1.176.153.266l-.055-.063h0l.029.034c-.271.083-.538.17-.808.253l-6.049,4.27-1.008-2.057,7.14-2.272Zm-34.687,22.327c-3.707,8.479-13.913,17.269-20.588,17.037l20.588-17.037" fill="#fff"/>
    <path id="Path_4465" data-name="Path 4465" d="M157.387,91.832l.193.174c-.22.088-.438.186-.657.28l0,0c.22-.094.439-.193.66-.28.173-.224.347-.447.52-.67l-.008.005L157.58,92l-.193-.173-.464.454.464-.454" fill="#fff"/>
    <path id="Path_4466" data-name="Path 4466" d="M150.308,98.759l.141.164h0Z" fill="#fff"/>
    <path id="Path_4467" data-name="Path 4467" d="M824.484,327.221l.156.048a.9.9,0,0,1-.2-.085c-.005.085-.015.172-.022.258.016-.013.031-.025.048-.037.005-.061.013-.124.018-.184" fill="#fff"/>
    <path id="Path_4468" data-name="Path 4468" d="M989.838,347.806c-4.854-10.685-12.883-17.406-22.556-23.061-2.366-1.383-4.025-4.1-5.753-6.4-.908-1.207-.938-3.119-1.918-4.223-9.573-10.793-19.144-21.6-29-32.125-2.588-2.765-6.172-4.6-9.3-6.857l7.73,9.535c-3.139,1.944-5.3,1.249-7.547-1.206-8.144-8.9-16.391-17.7-24.652-26.489-3.177-3.379-6.722-6.435-9.7-9.975-5.415-6.438-10.531-13.127-15.772-19.711l1.7-1.555q2.361,2,4.725,4a14.527,14.527,0,0,0-1.818-5.271l-.018-.029q-.325-.565-.69-1.1c-2.25-3.316-5.537-5.881-8.351-8.776-.626-.643-1.228-1.3-1.79-1.991-.724-.887-3.468-.125-5.54-.125a12.962,12.962,0,0,1-1.368-2.233c-1.98-5.024-5.321-10.085-5.294-15.117.017-3.214,5.705-5.321,9.8-6.5a4.224,4.224,0,0,0,2.245-1.886c3.712-6.73,13-7.163,16.243-14.449a3.944,3.944,0,0,1,2.435-1.6c7.387-1.992,11.543-8.3,16.358-13.226,4.734-4.841,10.164-7.69,15.987-10.365,3.486-1.6,8.066-2.235,10.3-4.873,6.708-7.912,15.567-12.268,25.189-17.023l-6.212-3.87,5.9-3.08c-3.218-1.894-6.429-2.783-8.714-1.706a59.426,59.426,0,0,0-12.666,8.239c-2.357,1.975-3.932,3.359-6.32.942l7.843-12.84c2.061-1.14,5.122-2.874,8.22-4.538,10.1-5.428,18.988-11.6,25.09-22.218a38.606,38.606,0,0,1,4.986-6.672c.759-.835,1.548-1.653,2.358-2.46s1.638-1.6,2.477-2.391c2.938-2.763,6-5.454,8.764-8.316l-.562-.59c-4.938-3.319-10.979-1.385-15.264-3.494-4.846,4.042-8.72,8.211-13.406,11.032-32.405,19.509-64.751,39.088-95.183,61.642-7.039,5.217-15.417,8.776-20.218,16.744-.517.857-2.031,1.113-3.842,2.034,0-4.236-.19-7.562.034-10.861.8-11.806,1.548-23.622,2.681-35.4,1.585-16.47-4.156-33.521,3.91-49.469V14.346c-6.629-1.968-9.148,2.175-10.295,6.009-2.279,7.616-3.486,15.552-5.409,24.648l-19.31-3.211a35.468,35.468,0,0,0-.845,4.929c-.048,30.295-.258,60.593.109,90.883.077,6.3,2.261,12.59,3.639,18.849.167.762,1.584,1.169,2.043,1.961,3.257,5.611,2.178,13-3.29,16.49-16.157,10.316-29.031,25.318-47.088,32.893a5.274,5.274,0,0,0-1.433,1.323c-9.549,9.778-19.938,18.822-26.98,30.788-.215.364.153,1.071.342,2.141l8.044-1.672c.674,3.678,1.349,7.368,1.924,10.5,4.119,0,8.195.365,12.174-.1,4.149-.485,8.784-.812,12.2-2.879,11.8-7.148,23.086-15.134,34.723-22.558,3.738-2.385,7.737-5.2,13.055-2.287a38.567,38.567,0,0,1-.036,5.663c-3.571,24.186-7.276,48.353-10.809,72.545-1.1,7.522-3.328,15.326-2.289,22.608,1.5,10.507-.784,20.3-1.991,30.384a136.3,136.3,0,0,0-.749,13.889c-.058,3.443.94,7.022.308,10.319-3.449,18-3.9,36.106-2.5,54.286.229,2.967,1.873,5.826,2.554,7.824,13.422-2.154,18.257-10.292,17.814-22.371,4.76,3.076-.849,9.68,6.514,12.56-.557-7.568-.035-14.355-1.982-20.339-.817-2.512-2.329-5.051-2.341-7.9-.061-15.314-.09-30.628.045-45.941.019-2.132.324-5.016,1.681-6.229,3.058-2.735,2.291-4.553.384-7.528a11.072,11.072,0,0,1,2.864-15.381c.007-.086.017-.173.023-.257.029-.049.052-.1.08-.146-3.105-5.666-.827-10.936,1.162-16.223,1.268,5.54,1.878,11.028-1.162,16.223.042.077.075.153.119.23-.06.044-.114.092-.174.136-.26,2.868-1.531,6.427-.77,8.6a2.849,2.849,0,0,0,.326.675c3.819,5.592,2.544,11.459,2.667,17.249.248,11.636.14,23.28.261,34.919.009.89.669,1.773,1.1,2.851l6.062-.438c1.117-16.851,2.183-33.21,3.3-49.566.257-3.766.658-7.1,2.6-10.931,2.211-4.367,2.325-11.878-.075-16.052-4.677-8.133-3.662-16.647-1.341-23.623a56.241,56.241,0,0,0,2.76-15.959c.279-6.723.24-13.459.338-20.19l2.02-.114c.658,3.216,1.315,6.432,1.929,9.437,5.076.771,5.527,1.164,10.508,6.83a10.617,10.617,0,0,0,4,2.8c6.926,2.674,10.476,9.356,15.72,13.914,3.24,2.816,9.377,5.285,8.941,11.782-.054.808,1.706,2.18,2.861,2.542,3.262,1.024,5.083,2.532,6.509,6.131,1.215,3.067,5.162,4.974,8.96,6.534,2.908,1.2,4.293,6.039,6.447,9.2a2.511,2.511,0,0,0,1.726.816c10.116.683,11.706,8.3,14.066,16.066,1.23,4.046,4.988,7.324,7.6,10.949l14.147,12.986,14.963,6.74c-7.606-10.791-19.988-16.471-27.868-27.541,7.4-.8,7.478-.848,10.838,4.794,2.406,4.042,5.48,3.732,8.369,1.739l9.365,7.329c.946-2.861.995-5.246,2.2-6.236,4.168-3.437,3.5-5.659.806-10.31-1.708-2.943-6.565-7.5-3.03-13.5,9.395,9.646,18.108,18.769,27.052,27.66,2.525,2.51,5.176,6.1,11.988,2.029-4.569-3.548-10.175-5.761-11.967-9.706M808.509,298.818l-1.514-.228q1.925-13.133,3.85-26.266l2.146.661-4.482,25.833m5.2-46.23q.91-3.9,1.819-7.791c.916,2.839,2.123,5.776-1.819,7.791m10.453,44.268c.037-7.445-2.916-15.385,3.016-22.256q-1.509,11.129-3.016,22.256M849.9,204.585l-6.3-6.791c5.852-.7,6.717,2.268,6.3,6.791" fill="#fff"/>
    <path id="Path_4469" data-name="Path 4469" d="M947.127,364.808h0l14.963,6.74Z" fill="#fff"/>
    <path id="Path_4470" data-name="Path 4470" d="M824.465,327.4c-.016.012-.031.025-.048.037-.237,2.887-1.478,6.408-.722,8.561-.761-2.171.51-5.73.77-8.6" fill="#fff"/>
    <path id="Path_4471" data-name="Path 4471" d="M875.953,224.444l.018.029-.018-.029" fill="#fff"/>
    <path id="Path_4472" data-name="Path 4472" d="M983.206,66.268c-2.765,2.862-5.827,5.553-8.764,8.316C977.379,71.821,980.441,69.13,983.206,66.268Z" fill="#fff"/>
    <path id="Path_4473" data-name="Path 4473" d="M971.964,76.975c-.809.807-1.6,1.625-2.358,2.46.759-.835,1.549-1.653,2.358-2.46" fill="#fff"/>
    <path id="Path_4474" data-name="Path 4474" d="M824.465,327.4c.06-.044.114-.092.174-.135l-.156-.049c0,.06-.012.123-.018.184" fill="#fff"/>
    <path id="Path_4475" data-name="Path 4475" d="M875.263,223.341c-2.249-3.316-5.537-5.88-8.351-8.776,2.814,2.9,6.1,5.46,8.351,8.776" fill="#fff"/>
    <path id="Path_4476" data-name="Path 4476" d="M360.191,181.723c1.045-6.876,2.486-13.7,3.285-20.6.662-5.712,2.173-12.166-6.219-13.651V136.655l-2.307,1.522c-2.836-2.513-5-5.9-7.92-6.78-19.638-5.932-39.265-12.187-60.71-12.151-.378-5.639-.746-11.134-1.1-16.388-6.386-2.1-10.974-.28-14.308,4.576-2.536,3.694-5.806,5.083-10.194,4.624-10.747-1.126-21.523-2-32.251-3.272-1.665-.2-3.142-1.979-4.868-3.138l-4.735,8.409,40.045,31.29c1.044-2.318,1.594-3.537,2.2-4.884,3.883,2.583,1.707,5.668.891,8.161-6.8,20.765-13.814,41.46-20.741,62.183-.621,1.858-2.108,4.278-1.459,5.556,2.319,4.563-.443,7.041-2.2,10.748-1.52,3.212.714,8.179,1.187,12.382.065.577-.513,1.2-.7,1.834-.836,2.8-1.523,5.65-2.474,8.41-3.233,9.378-6.543,18.728-9.848,28.081-1.157,3.276-2.387,6.524-3.571,9.75l-3.346-1.6c-8.592,32.64-17.109,64.993-25.626,97.345,9.315-17.712,12.133-36.962,22.116-53.628-2.066,11.983-4.131,23.968-6.287,36.479,5.872,1.56,6.935,6.524,6.985,12.325a23.317,23.317,0,0,0,3.242-6.133c3.162-9.153,6.2-18.35,9.351-27.505,4.2-12.207,8.732-24.306,12.609-36.613,2.183-6.931,5.033-13.1,11.445-17.869.653,13.577,1.279,26.592,1.906,39.607a80.011,80.011,0,0,0,6.371-18.469c1.491-8.026,1.933-16.244,2.937-24.365.151-1.222.992-2.344,1.351-3.56.892-3.028,2.183-6.048,2.417-9.14.4-5.265.11-10.582.11-14.7l9.84-8.017c4.037,8.927,8.769,18.028,12.315,27.571,4.622,12.438,11.072,23.92,16.677,35.836,7.425,15.786,12.538,32.661,18.653,49.064.692,1.856,1.576,5.33,2.145,5.285,7.328-.6,6.178,6.927,9.32,10,6.763-1.507,5.038-7.744,6.893-12.735,3.394,5.067,6.059,9.1,8.774,13.088,2.612,3.841,1.684,10.414,10.065,12.147-1.734-5.074-2.965-8.705-4.214-12.33-1.719-4.985-3.855-9.866-5.083-14.968-1.766-7.338-2.182-15.049-4.42-22.213-3.76-12.032-8.5-23.758-12.83-35.612-7.793-21.342-15.628-42.67-23.356-64.035-2.384-6.592.315-10.377,7.412-10.885,3.453-.246,6.9-.569,10.634-.879-.357,4.216-.7,8.306-1.1,12.967l15.686-1.692c3.213-8.939,6.516-18.13,10.266-28.562h21.4V193.5H358.842c.514-4.568.8-8.19,1.349-11.773m-25.467,15.632c-.469,2.475-3.995,5.867-6.483,6.218-15.027,2.115-30.161,3.469-46.019,5.159.4-8.05-3.486-16.267,3-23.547.553-.62.395-1.9.507-2.884,1.281-11.265,2.551-22.53,3.962-35.015,8.353,0,17.188-1.932,24.492.582,6.408,2.207,11.9,6.816,19.436,7.135,1.5.063,3.514,5.824,3.972,9.14,1.549,11.217-.8,22.279-2.87,33.212" fill="#fff"/>
    <path id="Path_4477" data-name="Path 4477" d="M642.753,122.861c.163-7.267-3.475-9.954-10.563-10.965-10.114-1.442-18.77,2.952-29.058,5.87.687,8.961,1.659,18.133,2.019,27.329.352,8.976-.1,17.982.13,26.965.242,9.268.733,18.536,1.4,27.783.641,8.9,1.772,17.774,2.454,26.677.679,8.859,1.067,17.74,1.582,26.611l-2.084.365c-2.877-5.845-5.7-11.72-8.644-17.529-9.753-19.223-20.641-37.9-27.037-58.7-4.182-13.6-9.474-26.892-13.016-40.644-1.9-7.38-6.781-14.131-5.109-22.493,1.444-7.224-2.2-11.689-9.65-14.083-.783,8.043-8.745,2.539-11.407,6.4-3.78,5.479-9.564.718-14.51,4.352,0,7.346-2.32,16.567.64,23.549,3.084,7.276,2.721,13.967,2.963,20.981.344,9.977.045,19.975.116,29.963.019,2.632.367,5.264.6,7.893,1.022,11.43,2.66,22.843,2.955,34.292.494,19.161.135,38.345.135,56.526l7.777,7.282c.438-3.447.876-6.285,1.141-9.139.262-2.823-.187-6.047,5.081-6.359.925,15.1-1.493,30.259,5.734,46.551,1.85-8.3.844-14.486,1.21-20.545.177-2.94-.52-7.067,1.1-8.556,3.679-3.372,2.81-7.179,2.824-10.949.09-23.633.046-47.267.046-72.521,2.636,1.768,4.839,2.471,5.7,3.954q7.141,12.246,13.712,24.823c8.072,15.39,16.159,30.778,23.9,46.335,6.909,13.884,18.351,25.555,20.5,41.77,7.571,6.773,5.709,16.155,6.442,24.617l9.779,5a12.9,12.9,0,0,0,1.118-2.941c1.064-11.748-.436-23.672-.2-35.477a90.154,90.154,0,0,1,.627-9.289,58.023,58.023,0,0,1,3.678-14.68c.251-8.453.543-16.9.826-25.357q.143-4.225.278-8.452.272-8.452.493-16.9t.335-16.908c.337-25.3.071-50.609.088-75.914,0-2.66-.95-6.32.41-7.805,5.507-6.013,3.323-13.046,3.471-19.679m-117.658,2.924-1.322-.006v-8.846l1.322.683Zm84.628,91.166q-1.5-19.742-3.005-39.485l2.3-.147c3.016,13.049,2.489,26.306.706,39.632m4.406,39.273q0-7.446,0-14.892t0-14.892q0,7.446,0,14.892,0-7.446,0-14.892,0,7.446,0,14.892t0,14.892q0-7.446,0-14.892,0,7.446,0,14.892" fill="#fff"/>
    <path id="Path_4478" data-name="Path 4478" d="M638.449,243.167q-.214,8.452-.493,16.9.272-8.452.493-16.9" fill="#fff"/>
    <path id="Path_4479" data-name="Path 4479" d="M633.174,308.561a90.429,90.429,0,0,0-.627,9.289,90.429,90.429,0,0,1,.627-9.289" fill="#fff"/>
    <path id="Path_4480" data-name="Path 4480" d="M633.174,308.561a58.023,58.023,0,0,1,3.679-14.68c.251-8.453.543-16.9.826-25.357-.283,8.453-.575,16.9-.827,25.357a58.064,58.064,0,0,0-3.678,14.68" fill="#fff"/>
    <path id="Path_4481" data-name="Path 4481" d="M503.009,225.5c-.254-6.3.36-12.629.257-18.939q-.891-54.828-1.973-109.651a9.9,9.9,0,0,0-.763-2.541,270.342,270.342,0,0,0-.877,28.029c.031,3.847-.615,6.975-6.323,7.5V105.016l-10.3,1.362v19.834l-1.97.193-2.559-8.252c-1.382,6.091-1.646,11.987-2.376,17.825-.473,3.786-2.207,7.463-2.358,11.229-.36,8.975-.106,17.975-.126,26.965,0,1.994.694,4.641-.306,5.875-6.19,7.641-3.053,16.488-3.6,24.8a130.727,130.727,0,0,0,.056,18.962c.306,3.814,3.964,9.587,2.627,10.885-3.99,3.872-2.153,8.019-2.75,12.005-.289,1.928-.375,3.886-.569,6.008-5.842,2.025-11.848,3.165-16.657,6.2-2.147,1.356-3.468,2.775-5.5,1.341-10.043-7.088-22.883-11.567-25.318-26a78.741,78.741,0,0,1-.629-9.622c-.346-7.923-1.227-15.875-.846-23.765.827-17.1,2.3-34.175,3.528-51.258.346-4.821,0-9.361,2.5-14.278,4.1-8.039.126-13.679-8.761-15.387-1.709-.329-3.287-1.536-4.832-2.49-9.7-5.988-9.7-6.025-19.07-1.068-.707.374-1.077,1.386-1.827,2.4l5.127,2.024c-1.009,12.38-2.217,24.85-2.992,37.347-.9,14.557-1.517,29.133-2.078,43.708-.243,6.317-.018,12.651-.057,18.977-.013,1.989.367,4.228-.392,5.922-4.31,9.628-1.623,19.438-1.894,28.422,3.691,1.944,6.559,3.287,9.256,4.914,3.86,2.328,7.427,5.192,11.423,7.231a139.345,139.345,0,0,0,17.282,7.6c4.839,1.691,4.031,4.055,2.372,7.431-6.969-3.97-8.11-4.128-16.422-1.857a103.645,103.645,0,0,0,9.587,5.32c8.417,3.666,18.412,3.942,25.475,10.267,4.859,4.352,10.069,3.576,15.462,3.832,1.646.078,3.641-.173,4.862.643,7.081,4.739,15.333,3.483,22.122,1.737,6.448-1.658,15.223-1.213,18.995-9.535.529-1.169,3.148-1.391,6.573-2.759l-10.446-1.624c-1.015-21.328-2.1-42.1-2.936-62.881m-41.593,32.244c.58,5.167.58,5.167-6.843,5.348l6.843-5.348m23.353,37.123c-.657-1.38-1.536-3.222-2.383-5-8.232-3.269-16.523,2.364-24.831-.706-7.459-2.756-15.267-4.567-22.922-6.8q.174-1.217.347-2.435c6.892-1.193,13.573-2.621,19.776,3.4,1.976,1.919,5.936,2.366,9.021,2.464,9.471.3,18.959.11,29.3.11l-8.3,8.961m16.058-96.322H500v-59.43l.831.29Z" fill="#fff"/>
    <path id="Path_4482" data-name="Path 4482" d="M412.869,280.589l-.03.04.476-.129-.036-.021-.41.11" fill="#fff"/>
    <path id="Path_4483" data-name="Path 4483" d="M413.048,280.347l-.179.243c.144-.04.27-.072.41-.11l-.231-.133" fill="#fff"/>
    <path id="Path_4484" data-name="Path 4484" d="M772.533,265.6a1.781,1.781,0,0,0-.705.687c-.1.233.066.576.137,1.012l3.776,2.208c-11.419,7.464-16.607,20.329-29.625,23.573-.494,2.285-.968,4.478-1.532,7.089-13.474.115-25.1-2.385-36.17-8.006-8.768-4.452-14.075-13.029-12.741-22.512a157.385,157.385,0,0,0-.182-47.533c-.5-3.049.317-6.477,1.175-9.549,2.244-8.026,4.535-16.065,7.4-23.883,2.692-7.357,5-14.981,12.279-19.771,10.351-6.811,20.377-14.115,30-20.834,8.824,6.579,5.4,15.93,7.436,25.692,2.783-2.367,5.088-3.356,5.488-4.853,1.161-4.344,3.654-4.132,6.761-2.749a23.309,23.309,0,0,1,3.36,2.231l1.617-1.1a37.7,37.7,0,0,1-2.34-5.375c-.618-2.293-1.8-6.288-.986-6.806,4.52-2.883,2.813-7.07,3.045-10.789.248-3.981-1.39-8.977.451-11.795,6.07-9.291,2.664-19.246,3.521-28.848.271-3.035-.3-6.144-.532-9.871-8.945,5.967-19.8,8.511-17.824,20.258-5.185,2.226-9.386,4.223-13.73,5.836-3.6,1.338-7.8,1.526-10.984,3.454-6.847,4.141-15.257,4.919-21.106,11.55a57.163,57.163,0,0,1-16.385,13.371,31.625,31.625,0,0,0-14.613,17.477c-1.869,5.234-3.839,11.263-7.718,14.781-8.564,7.768-12.064,16.655-11.042,27.9.26,2.862.45,7.053-1.2,8.483-3.213,2.791-2.616,5.851-2.666,9-.124,7.655-.094,15.312-.008,22.967.025,2.3-.436,5.583.836,6.7,3.973,3.5,2.807,7.8,3.158,11.968.647,7.7,1.945,15.423,6.871,21.549,2.606,3.24,6.9,5.087,10.27,7.761,3.446,2.731,6.7,5.7,10.646,9.092-.921,4.186,1.728,7.307,5.241,10.734,5.025,4.9,9.344,10.217,17.428,8.5.58-.124,1.269.3,1.912.446,16.732,3.855,32.937,5.33,45.774-9.606.95-1.1,2.784-1.433,4.179-2.176,3.782-2.012,9.159-3.166,10.893-6.317,1.964-3.569,4.472-6.093,6.923-9.061,3.192-3.865,6.727-8.538,7.325-13.22,1.149-8.992.334-18.235.334-30-6.87,4.393-11.514,7.36-16.151,10.338M762.566,152q.177,2.738.355,5.477l-2,.348q-.564-2.742-1.127-5.484l2.776-.341M693.535,252.213l-3.13-29.574c6.817,9.339,4.5,19.637,3.13,29.574" fill="#fff"/>
    <path id="Path_4485" data-name="Path 4485" d="M873.065,225.743l-1.7,1.554c5.241,6.585,10.357,13.274,15.772,19.712,2.978,3.54,6.523,6.6,9.7,9.975,8.261,8.789,16.508,17.592,24.652,26.488,2.247,2.456,4.407,3.151,7.547,1.207l-7.73-9.535-.2-.306L877.9,229.829l-.1-.078v0l0,0q-2.367-2.007-4.725-4" fill="#fff"/>
    <path id="Path_4486" data-name="Path 4486" d="M877.9,229.828s-.094-.072-.1-.081v0Z" fill="#fff"/>
    <path id="Path_4487" data-name="Path 4487" d="M917.908,268.194Q901,250.275,883.655,232.769c-1.439-1.456-3.818-1.983-5.76-2.941l43.211,45.009c-1.04-2.239-1.591-4.94-3.2-6.643" fill="#fff"/>
    <path id="Path_4488" data-name="Path 4488" d="M397.442,271.627c-.54-5.519-.616-5.886-6.367-7.687l-1.238-.384v14.733a8.635,8.635,0,0,0,2.364.422,2.89,2.89,0,0,0,2.41-.972c1.257-1.485,1.08-4.291,2.307-5.669a2.307,2.307,0,0,1,.524-.443" fill="#fff"/>
    <path id="Path_4489" data-name="Path 4489" d="M397.448,271.623l-.006,0v.007l.006,0v-.007" fill="#fff"/>
    <path id="Path_4490" data-name="Path 4490" d="M397.459,271.734c0-.037-.007-.067-.01-.1l-.006,0c0,.038.006.07.01.107Z" fill="#fff"/>
    <path id="Path_4491" data-name="Path 4491" d="M397.459,271.734h0l.207-.224a2.372,2.372,0,0,0-.217.12c0,.037.006.067.01.1" fill="#fff"/>
    <path id="Path_4492" data-name="Path 4492" d="M397.666,271.51l.014-.015a2.156,2.156,0,0,0-.232.128v.007a2.153,2.153,0,0,1,.217-.12" fill="#fff"/>
    <path id="Path_4493" data-name="Path 4493" d="M394.611,277.739c1.255-1.482,1.084-4.281,2.307-5.67-1.227,1.379-1.05,4.185-2.307,5.67" fill="#fff"/>
    <path id="Path_4494" data-name="Path 4494" d="M410.967,275.732a130.106,130.106,0,0,0-13.339-3.944c-.666,3.945.112,6.618,3.98,7.2a12.018,12.018,0,0,0,1.9.121,33.2,33.2,0,0,1,5.961.643c1.1.191,2.192.389,3.288.548-.522-1.706-.751-4.159-1.791-4.571" fill="#fff"/>
    <path id="Path_4495" data-name="Path 4495" d="M397.629,271.78h0v.007h0v-.007" fill="#fff"/>
    <path id="Path_4496" data-name="Path 4496" d="M412.776,280.3l-.017,0h0Z" fill="#fff"/>
    <path id="Path_4497" data-name="Path 4497" d="M397.625,271.779c.015-.091.026-.178.043-.271h0l-.208.225.166.045" fill="#fff"/>
    <path id="Path_4498" data-name="Path 4498" d="M413.048,280.347h0l-.272-.041c.091.013.181.029.272.041" fill="#fff"/>
    <path id="Path_4499" data-name="Path 4499" d="M397.625,271.779h0c.016-.093.028-.183.045-.278l-.007.007h0c-.017.093-.028.18-.043.271" fill="#fff"/>
    <path id="Path_4500" data-name="Path 4500" d="M412.776,280.306l-.017,0c.031.1.06.211.093.307l.016-.02h0c-.032-.089-.059-.191-.089-.285" fill="#fff"/>
    <path id="Path_4501" data-name="Path 4501" d="M397.459,271.734l-.006.006.171.047v-.008c-.055-.015-.111-.029-.166-.045" fill="#fff"/>
    <path id="Path_4502" data-name="Path 4502" d="M412.776,280.306c.03.094.057.2.089.285h0c.038-.05.18-.242.18-.243-.091-.012-.181-.028-.272-.041" fill="#fff"/>
    <path id="Path_4503" data-name="Path 4503" d="M932.981,351.823c3.123,8.985,11.1,13.178,18.48,18.009l-4.333-5.024-14.147-12.985" fill="#fff"/>
    <path id="Path_4504" data-name="Path 4504" d="M951.461,369.831l-4.333-5.024,4.333,5.024" fill="#fff"/>
    <path id="Path_4505" data-name="Path 4505" d="M228.957,256.236q2.86-9.075,5.72-18.151c-3.639,5.54-7.442,11.061-5.72,18.151" fill="#fff"/>
    <path id="Path_4506" data-name="Path 4506" d="M986.879,64.785a5.635,5.635,0,0,0,.453-.357,5.5,5.5,0,0,0,1.169-1.454,9.965,9.965,0,0,0,1.088-4.145l-6.945,6.848.562.59a11.521,11.521,0,0,0,3.673-1.482" fill="#fff"/>
    <path id="Path_4507" data-name="Path 4507" d="M987.332,64.428a5.487,5.487,0,0,0,1.169-1.454,5.487,5.487,0,0,1-1.169,1.454" fill="#fff"/>
    <path id="Path_4508" data-name="Path 4508" d="M983.206,66.268a11.521,11.521,0,0,0,3.673-1.482A11.521,11.521,0,0,1,983.206,66.268Z" fill="#fff"/>
    <path id="Path_4509" data-name="Path 4509" d="M115.621,121.086,95.033,138.123c6.675.232,16.881-8.558,20.588-17.037" fill="#fff"/>
    <path id="Path_4510" data-name="Path 4510" d="M165.326,86.338l-1.849-1.929q-2.688,3.464-5.376,6.929l7.225-5" fill="#fff"/>
    <path id="Path_4511" data-name="Path 4511" d="M163.477,84.409l-5.384,6.934.008-.005q2.687-3.466,5.376-6.929" fill="#fff"/>
    <path id="Path_4512" data-name="Path 4512" d="M158.093,91.344l-.706.489.192.173.514-.662" fill="#fff"/>
    <path id="Path_4513" data-name="Path 4513" d="M150.35,98.719h0l-.011.01.011-.01" fill="#fff"/>
    <path id="Path_4514" data-name="Path 4514" d="M150.349,98.719l3.5-3.423,3.073-3.007c-1.092.467-2.173.985-3.282,1.373a11.375,11.375,0,0,1-1.35.386c-3.329.717-3.21,2.434-1.939,4.671" fill="#fff"/>
    <path id="Path_4515" data-name="Path 4515" d="M150.339,98.729l-.031.03.14.163c-.038-.065-.073-.129-.109-.193" fill="#fff"/>
    <path id="Path_4516" data-name="Path 4516" d="M150.339,98.729l-.031.03Z" fill="#fff"/>
    <path id="Path_4517" data-name="Path 4517" d="M150.448,98.922l.054.063c-.054-.09-.1-.178-.152-.266l-.011.01c.036.065.071.128.109.193" fill="#fff"/>
    <path id="Path_4518" data-name="Path 4518" d="M156.923,92.286c-1.093.469-2.174.988-3.285,1.375,1.11-.387,2.191-.905,3.283-1.372l0,0" fill="#fff"/>
    <path id="Path_4519" data-name="Path 4519" d="M156.921,92.289l0,0,0,0" fill="#fff"/>
    <path id="Path_4520" data-name="Path 4520" d="M157.387,91.832l-.464.454c.219-.094.437-.192.657-.28l-.193-.174" fill="#fff"/>
    <path id="Path_4521" data-name="Path 4521" d="M153.848,95.3l3.073-3.007L153.848,95.3" fill="#fff"/>
    <path id="Path_4522" data-name="Path 4522" d="M142.612,101.423l1.008,2.057,6.049-4.27q-3.545,1.089-7.057,2.213" fill="#fff"/>
    <path id="Path_4523" data-name="Path 4523" d="M149.753,99.151l-.084.059.084-.059" fill="#fff"/>
    <path id="Path_4524" data-name="Path 4524" d="M150.308,98.759h0l-.555.392Z" fill="#fff"/>
    <path id="Path_4525" data-name="Path 4525" d="M149.753,99.151l.7-.222,0-.006-.14-.164Z" fill="#fff"/>
    <path id="Path_4526" data-name="Path 4526" d="M149.753,99.151l-.084.059c.27-.083.537-.17.808-.253l-.029-.034,0,.006-.7.222" fill="#fff"/>
    <path id="Path_4527" data-name="Path 4527" d="M824.165,296.857q1.508-11.129,3.016-22.256c-5.931,6.871-2.979,14.811-3.016,22.256" fill="#fff"/>
    <path id="Path_4528" data-name="Path 4528" d="M806.995,298.591l1.514.228q2.241-12.916,4.483-25.833l-2.147-.662q-1.924,13.134-3.85,26.267" fill="#fff"/>
    <path id="Path_4529" data-name="Path 4529" d="M825.683,310.816c-1.99,5.287-4.267,10.557-1.162,16.222,3.04-5.2,2.43-10.682,1.162-16.222" fill="#fff"/>
    <path id="Path_4530" data-name="Path 4530" d="M824.521,327.038c-.029.048-.052.1-.082.146a.9.9,0,0,0,.2.085c-.044-.078-.076-.154-.118-.231" fill="#fff"/>
    <path id="Path_4531" data-name="Path 4531" d="M843.6,197.795l6.3,6.791c.414-4.523-.451-7.489-6.3-6.791" fill="#fff"/>
    <path id="Path_4532" data-name="Path 4532" d="M813.713,252.589c3.941-2.016,2.733-4.952,1.818-7.791q-.909,3.9-1.818,7.791" fill="#fff"/>
    <path id="Path_4533" data-name="Path 4533" d="M606.718,177.467q1.5,19.743,3.005,39.485c1.783-13.326,2.31-26.584-.706-39.633l-2.3.148" fill="#fff"/>
    <path id="Path_4534" data-name="Path 4534" d="M523.773,125.779l1.321.006v-8.169l-1.321-.683Z" fill="#fff"/>
    <path id="Path_4535" data-name="Path 4535" d="M463.777,285.8c-3.085-.1-7.045-.545-9.021-2.464-6.2-6.024-12.883-4.6-19.776-3.4q-.173,1.218-.346,2.435c7.654,2.228,15.462,4.039,22.922,6.8,8.307,3.07,16.6-2.563,24.83.706.848,1.779,1.726,3.621,2.384,5l8.3-8.96c-10.337,0-19.825.193-29.3-.11" fill="#fff"/>
    <path id="Path_4536" data-name="Path 4536" d="M500,198.546h.831V139.406l-.831-.291Z" fill="#fff"/>
    <path id="Path_4537" data-name="Path 4537" d="M461.416,257.745l-6.843,5.347c7.423-.18,7.423-.18,6.843-5.347" fill="#fff"/>
    <path id="Path_4538" data-name="Path 4538" d="M693.535,252.213c1.366-9.937,3.687-20.235-3.13-29.574Z" fill="#fff"/>
    <path id="Path_4539" data-name="Path 4539" d="M762.921,157.474q-.177-2.739-.355-5.477l-2.776.342q.564,2.742,1.127,5.484l2-.349" fill="#fff"/>
  </g>
</svg>
